<svg width="27" height="28" viewBox="0 0 27 28" fill="none" xmlns="http://www.w3.org/2000/svg">
<path fill-rule="evenodd" clip-rule="evenodd" d="M13.6521 27.5678C21.0094 27.5678 26.9738 21.6034 26.9738 14.2461C26.9738 6.88875 21.0094 0.924438 13.6521 0.924438C6.29475 0.924438 0.330444 6.88875 0.330444 14.2461C0.330444 21.6034 6.29475 27.5678 13.6521 27.5678ZM19.8252 12.0932C20.4755 11.4429 20.4755 10.3885 19.8252 9.7382C19.1749 9.0879 18.1205 9.0879 17.4702 9.7382L11.9869 15.2215L9.83396 13.0686C9.18365 12.4183 8.1293 12.4183 7.479 13.0686C6.8287 13.7189 6.8287 14.7733 7.479 15.4236L10.8094 18.754C11.4597 19.4043 12.5141 19.4043 13.1644 18.754L19.8252 12.0932Z" fill="#1A2032"/>
</svg>
