<svg width="16" height="12" viewBox="0 0 16 12" fill="none" xmlns="http://www.w3.org/2000/svg">
<path d="M1.33334 2.66663L6.77662 6.47692C7.2174 6.78547 7.43779 6.93974 7.67751 6.9995C7.88927 7.05228 8.11074 7.05228 8.32249 6.9995C8.56222 6.93974 8.78261 6.78547 9.22339 6.47692L14.6667 2.66663M4.53334 11.3333H11.4667C12.5868 11.3333 13.1468 11.3333 13.5747 11.1153C13.951 10.9236 14.2569 10.6176 14.4487 10.2413C14.6667 9.81345 14.6667 9.2534 14.6667 8.13329V3.86663C14.6667 2.74652 14.6667 2.18647 14.4487 1.75865C14.2569 1.38232 13.951 1.07636 13.5747 0.884613C13.1468 0.666626 12.5868 0.666626 11.4667 0.666626H4.53334C3.41323 0.666626 2.85318 0.666626 2.42535 0.884613C2.04903 1.07636 1.74307 1.38232 1.55132 1.75865C1.33334 2.18647 1.33334 2.74652 1.33334 3.86663V8.13329C1.33334 9.2534 1.33334 9.81345 1.55132 10.2413C1.74307 10.6176 2.04903 10.9236 2.42535 11.1153C2.85318 11.3333 3.41323 11.3333 4.53334 11.3333Z" stroke="#667085" stroke-width="1.33333" stroke-linecap="round" stroke-linejoin="round"/>
</svg>
