<svg width="26" height="22" viewBox="0 0 26 22" fill="none" xmlns="http://www.w3.org/2000/svg">
<path d="M1.33334 5.16663L10.8591 11.8346C11.6304 12.3746 12.0161 12.6446 12.4356 12.7492C12.8062 12.8415 13.1938 12.8415 13.5644 12.7492C13.9839 12.6446 14.3696 12.3746 15.1409 11.8346L24.6667 5.16663M6.93334 20.3333H19.0667C21.0269 20.3333 22.0069 20.3333 22.7556 19.9518C23.4142 19.6163 23.9496 19.0808 24.2852 18.4223C24.6667 17.6736 24.6667 16.6935 24.6667 14.7333V7.26663C24.6667 5.30644 24.6667 4.32635 24.2852 3.57766C23.9496 2.91909 23.4142 2.38366 22.7556 2.0481C22.0069 1.66663 21.0269 1.66663 19.0667 1.66663H6.93334C4.97315 1.66663 3.99306 1.66663 3.24437 2.0481C2.5858 2.38366 2.05037 2.91909 1.71481 3.57766C1.33334 4.32635 1.33334 5.30644 1.33334 7.26663V14.7333C1.33334 16.6935 1.33334 17.6736 1.71481 18.4223C2.05037 19.0808 2.5858 19.6163 3.24437 19.9518C3.99306 20.3333 4.97315 20.3333 6.93334 20.3333Z" stroke="#344054" stroke-width="2" stroke-linecap="round" stroke-linejoin="round"/>
</svg>
