<svg width="39" height="43" viewBox="0 0 39 43" fill="none" xmlns="http://www.w3.org/2000/svg">
<path d="M25.8837 3.39304L21.0926 0.60754C19.867 -0.092813 18.3549 -0.092813 17.1293 0.60754L2.05575 9.31421C0.830136 10.0146 0.0820312 11.3198 0.0820312 12.7364V30.1179C0.0820312 31.5345 0.830136 32.8397 2.05575 33.556L5.63711 35.6252L8.39077 30.7068L7.69042 30.293C6.4648 29.5926 5.71669 28.2715 5.71669 26.8549V15.9835C5.71669 14.5669 6.48071 13.2617 7.69042 12.5454L17.1134 7.10173C17.9888 6.6083 18.9916 6.44912 19.9466 6.65605C20.3445 6.73563 20.7265 6.8948 21.0767 7.10173L22.175 7.73841L22.9549 8.18409L24.2761 8.94811L27.1093 5.62143L27.6346 4.39582L25.8837 3.39304ZM36.1502 9.31421L30.1972 5.87611L27.9529 11.081L30.5156 12.5613C31.7412 13.2776 32.4893 14.5828 32.4893 15.9994V26.8867C32.4893 28.3033 31.7253 29.6085 30.5156 30.3248L21.0926 35.7526C20.44 36.1346 19.7078 36.3096 18.9916 36.2778C18.339 36.2619 17.7023 36.0868 17.1293 35.7526L16.3971 35.3228L13.8981 40.3844L16.2857 41.7692L17.1293 42.2627C18.3549 42.963 19.867 42.963 21.0926 42.2627L36.1502 33.5719C37.3759 32.8715 38.124 31.5504 38.124 30.1338V12.7364C38.124 11.3198 37.3759 10.0146 36.1502 9.31421Z" fill="url(#paint0_linear_621_23902)"/>
<path d="M27.3484 19.3738L18.976 36.2778L16.2701 41.7533L13.8825 40.3685L7.97729 36.9622L15.0445 24.34H8.93232C8.58215 24.34 8.39114 23.9261 8.61398 23.6555L22.1754 7.7384L25.8841 3.37711L27.6349 4.3958L27.1097 5.62142L21.4591 18.769H26.9823C27.2848 18.7849 27.4917 19.1032 27.3484 19.3738Z" fill="url(#paint1_linear_621_23902)"/>
<defs>
<linearGradient id="paint0_linear_621_23902" x1="19.103" y1="0.0822754" x2="19.103" y2="42.7879" gradientUnits="userSpaceOnUse">
<stop stop-color="#ffffff"/>
<stop offset="0.433341" stop-color="#ffffff"/>
<stop offset="1" stop-color="#ffffff"/>
</linearGradient>
<linearGradient id="paint1_linear_621_23902" x1="17.8061" y1="3.37711" x2="17.8061" y2="41.7533" gradientUnits="userSpaceOnUse">
<stop stop-color="#ffffff"/>
<stop offset="1" stop-color="#ffffff"/>
</linearGradient>
</defs>
</svg>
