<svg width="122" height="123" viewBox="0 0 122 123" fill="none" xmlns="http://www.w3.org/2000/svg">
<circle cx="61" cy="61.25" r="58.8369" stroke="url(#paint0_linear_531_1673)" stroke-width="4.32624"/>
<path d="M48.8865 46.5184C48.8865 44.4176 48.8865 43.3673 49.3245 42.7883C49.7061 42.2838 50.2893 41.9717 50.9207 41.934C51.6454 41.8907 52.5194 42.4734 54.2673 43.6387L77.0137 58.8029C78.458 59.7658 79.1801 60.2472 79.4318 60.854C79.6518 61.3846 79.6518 61.9808 79.4318 62.5113C79.1801 63.1181 78.458 63.5995 77.0137 64.5624L54.2673 79.7267C52.5194 80.892 51.6454 81.4746 50.9207 81.4313C50.2893 81.3936 49.7061 81.0815 49.3245 80.5771C48.8865 79.9981 48.8865 78.9477 48.8865 76.8469V46.5184Z" stroke="url(#paint1_linear_531_1673)" stroke-width="4.32624" stroke-linecap="round" stroke-linejoin="round"/>
<defs>
<linearGradient id="paint0_linear_531_1673" x1="116.165" y1="7.67608" x2="-3.36714e-06" y2="122.25" gradientUnits="userSpaceOnUse">
<stop stop-color="#F8A4D8"/>
<stop offset="1" stop-color="#6C63FF"/>
</linearGradient>
<linearGradient id="paint1_linear_531_1673" x1="78.128" y1="44.3362" x2="41.8002" y2="72.1921" gradientUnits="userSpaceOnUse">
<stop stop-color="#F8A4D8"/>
<stop offset="1" stop-color="#6C63FF"/>
</linearGradient>
</defs>
</svg>
